<svg width="167" height="19" viewBox="0 0 167 19" fill="none" xmlns="http://www.w3.org/2000/svg">
<path d="M7.5 15.12C6.44667 15.12 5.46667 14.9467 4.56 14.6C3.66667 14.24 2.88667 13.74 2.22 13.1C1.56667 12.4467 1.05333 11.6934 0.68 10.84C0.32 9.97336 0.14 9.0267 0.14 8.00003C0.14 6.97336 0.32 6.03336 0.68 5.18003C1.05333 4.31336 1.56667 3.56003 2.22 2.92003C2.88667 2.2667 3.66667 1.7667 4.56 1.42003C5.45333 1.06003 6.43333 0.88003 7.5 0.88003C8.55333 0.88003 9.52667 1.06003 10.42 1.42003C11.3133 1.7667 12.0867 2.26003 12.74 2.90003C13.4067 3.54003 13.92 4.29336 14.28 5.16003C14.6533 6.0267 14.84 6.97336 14.84 8.00003C14.84 9.0267 14.6533 9.97336 14.28 10.84C13.92 11.7067 13.4067 12.46 12.74 13.1C12.0867 13.74 11.3133 14.24 10.42 14.6C9.52667 14.9467 8.55333 15.12 7.5 15.12ZM7.5 13.8C8.34 13.8 9.11333 13.66 9.82 13.38C10.54 13.0867 11.16 12.68 11.68 12.16C12.2133 11.6267 12.6267 11.0134 12.92 10.32C13.2133 9.61336 13.36 8.84003 13.36 8.00003C13.36 7.16003 13.2133 6.39336 12.92 5.70003C12.6267 4.99336 12.2133 4.38003 11.68 3.86003C11.16 3.3267 10.54 2.92003 9.82 2.64003C9.11333 2.3467 8.34 2.20003 7.5 2.20003C6.66 2.20003 5.88 2.3467 5.16 2.64003C4.44 2.92003 3.81333 3.3267 3.28 3.86003C2.76 4.38003 2.34667 4.99336 2.04 5.70003C1.74667 6.39336 1.6 7.16003 1.6 8.00003C1.6 8.8267 1.74667 9.59336 2.04 10.3C2.34667 11.0067 2.76 11.6267 3.28 12.16C3.81333 12.68 4.44 13.0867 5.16 13.38C5.88 13.66 6.66 13.8 7.5 13.8ZM19.7388 15V5.36003L20.0988 5.74003H15.7588V4.50003H25.1388V5.74003H20.7988L21.1588 5.36003V15H19.7388ZM34.8919 15L30.5719 9.80003L31.7519 9.10003L36.5719 15H34.8919ZM27.1919 15V4.50003H28.6119V15H27.1919ZM28.1719 10.32V9.10003H31.5519V10.32H28.1719ZM31.8719 9.90003L30.5519 9.70003L34.7319 4.50003H36.2719L31.8719 9.90003ZM38.3875 18.98C37.8942 18.98 37.4208 18.9 36.9675 18.74C36.5275 18.58 36.1475 18.34 35.8275 18.02L36.4875 16.96C36.7542 17.2134 37.0408 17.4067 37.3475 17.54C37.6675 17.6867 38.0208 17.76 38.4075 17.76C38.8742 17.76 39.2742 17.6267 39.6075 17.36C39.9542 17.1067 40.2808 16.6534 40.5875 16L41.2675 14.46L41.4275 14.24L45.7475 4.50003H47.1475L41.8875 16.26C41.5942 16.94 41.2675 17.48 40.9075 17.88C40.5608 18.28 40.1808 18.56 39.7675 18.72C39.3542 18.8934 38.8942 18.98 38.3875 18.98ZM41.1875 15.3L36.3475 4.50003H37.8275L42.1075 14.14L41.1875 15.3ZM56.1106 14.32V5.74003H51.0506L50.9306 8.08003C50.904 8.7867 50.8573 9.48003 50.7906 10.16C50.7373 10.84 50.6373 11.4667 50.4906 12.04C50.3573 12.6 50.164 13.06 49.9106 13.42C49.6573 13.7667 49.3306 13.9667 48.9306 14.02L47.5106 13.76C47.924 13.7734 48.264 13.6267 48.5306 13.32C48.7973 13 49.004 12.5667 49.1506 12.02C49.2973 11.4734 49.404 10.8534 49.4706 10.16C49.5373 9.45336 49.5906 8.73336 49.6306 8.00003L49.7706 4.50003H57.5306V14.32H56.1106ZM47.0706 17.54V13.76H59.1706V17.54H57.8306V15H48.4106V17.54H47.0706ZM68.458 15V12.68L68.398 12.3V8.42003C68.398 7.5267 68.1446 6.84003 67.638 6.36003C67.1446 5.88003 66.4046 5.64003 65.418 5.64003C64.738 5.64003 64.0913 5.75336 63.478 5.98003C62.8646 6.2067 62.3446 6.5067 61.918 6.88003L61.278 5.82003C61.8113 5.3667 62.4513 5.02003 63.198 4.78003C63.9446 4.5267 64.7313 4.40003 65.558 4.40003C66.918 4.40003 67.9646 4.74003 68.698 5.42003C69.4446 6.0867 69.818 7.1067 69.818 8.48003V15H68.458ZM64.838 15.1C64.0513 15.1 63.3646 14.9734 62.778 14.72C62.2046 14.4534 61.7646 14.0934 61.458 13.64C61.1513 13.1734 60.998 12.64 60.998 12.04C60.998 11.4934 61.1246 11 61.378 10.56C61.6446 10.1067 62.0713 9.7467 62.658 9.48003C63.258 9.20003 64.058 9.06003 65.058 9.06003H68.678V10.12H65.098C64.0846 10.12 63.378 10.3 62.978 10.66C62.5913 11.02 62.398 11.4667 62.398 12C62.398 12.6 62.6313 13.08 63.098 13.44C63.5646 13.8 64.218 13.98 65.058 13.98C65.858 13.98 66.5446 13.8 67.118 13.44C67.7046 13.0667 68.1313 12.5334 68.398 11.84L68.718 12.82C68.4513 13.5134 67.9846 14.0667 67.318 14.48C66.6646 14.8934 65.838 15.1 64.838 15.1ZM78.8325 15V4.50003H88.2725V15H86.8525V5.36003L87.2125 5.74003H79.8925L80.2525 5.36003V15H78.8325ZM96.6291 15.1C95.6157 15.1 94.7024 14.8734 93.8891 14.42C93.0891 13.9534 92.4557 13.32 91.9891 12.52C91.5224 11.7067 91.2891 10.78 91.2891 9.74003C91.2891 8.6867 91.5224 7.76003 91.9891 6.96003C92.4557 6.16003 93.0891 5.53336 93.8891 5.08003C94.6891 4.6267 95.6024 4.40003 96.6291 4.40003C97.6691 4.40003 98.5891 4.6267 99.3891 5.08003C100.202 5.53336 100.836 6.16003 101.289 6.96003C101.756 7.76003 101.989 8.6867 101.989 9.74003C101.989 10.78 101.756 11.7067 101.289 12.52C100.836 13.32 100.202 13.9534 99.3891 14.42C98.5757 14.8734 97.6557 15.1 96.6291 15.1ZM96.6291 13.84C97.3891 13.84 98.0624 13.6734 98.6491 13.34C99.2357 12.9934 99.6957 12.5134 100.029 11.9C100.376 11.2734 100.549 10.5534 100.549 9.74003C100.549 8.91336 100.376 8.19336 100.029 7.58003C99.6957 6.9667 99.2357 6.49336 98.6491 6.16003C98.0624 5.81336 97.3957 5.64003 96.6491 5.64003C95.9024 5.64003 95.2357 5.81336 94.6491 6.16003C94.0624 6.49336 93.5957 6.9667 93.2491 7.58003C92.9024 8.19336 92.7291 8.91336 92.7291 9.74003C92.7291 10.5534 92.9024 11.2734 93.2491 11.9C93.5957 12.5134 94.0624 12.9934 94.6491 13.34C95.2357 13.6734 95.8957 13.84 96.6291 13.84ZM109.524 15.1C108.431 15.1 107.471 14.8734 106.644 14.42C105.817 13.9534 105.171 13.32 104.704 12.52C104.237 11.7067 104.004 10.78 104.004 9.74003C104.004 8.70003 104.224 7.78003 104.664 6.98003C105.117 6.18003 105.731 5.55336 106.504 5.10003C107.291 4.63336 108.171 4.40003 109.144 4.40003C110.131 4.40003 111.004 4.6267 111.764 5.08003C112.537 5.52003 113.144 6.1467 113.584 6.96003C114.024 7.76003 114.244 8.6867 114.244 9.74003C114.244 9.8067 114.237 9.88003 114.224 9.96003C114.224 10.0267 114.224 10.1 114.224 10.18H105.084V9.12003H113.464L112.904 9.54003C112.904 8.78003 112.737 8.1067 112.404 7.52003C112.084 6.92003 111.644 6.45336 111.084 6.12003C110.524 5.7867 109.877 5.62003 109.144 5.62003C108.424 5.62003 107.777 5.7867 107.204 6.12003C106.631 6.45336 106.184 6.92003 105.864 7.52003C105.544 8.12003 105.384 8.8067 105.384 9.58003V9.80003C105.384 10.6 105.557 11.3067 105.904 11.92C106.264 12.52 106.757 12.9934 107.384 13.34C108.024 13.6734 108.751 13.84 109.564 13.84C110.204 13.84 110.797 13.7267 111.344 13.5C111.904 13.2734 112.384 12.9267 112.784 12.46L113.584 13.38C113.117 13.94 112.531 14.3667 111.824 14.66C111.131 14.9534 110.364 15.1 109.524 15.1ZM124.372 14.32V5.74003H119.312L119.192 8.08003C119.166 8.7867 119.119 9.48003 119.052 10.16C118.999 10.84 118.899 11.4667 118.752 12.04C118.619 12.6 118.426 13.06 118.172 13.42C117.919 13.7667 117.592 13.9667 117.192 14.02L115.772 13.76C116.186 13.7734 116.526 13.6267 116.792 13.32C117.059 13 117.266 12.5667 117.412 12.02C117.559 11.4734 117.666 10.8534 117.732 10.16C117.799 9.45336 117.852 8.73336 117.892 8.00003L118.032 4.50003H125.792V14.32H124.372ZM115.332 17.54V13.76H127.432V17.54H126.092V15H116.672V17.54H115.332ZM134.7 15.1C133.606 15.1 132.646 14.8734 131.82 14.42C130.993 13.9534 130.346 13.32 129.88 12.52C129.413 11.7067 129.18 10.78 129.18 9.74003C129.18 8.70003 129.4 7.78003 129.84 6.98003C130.293 6.18003 130.906 5.55336 131.68 5.10003C132.466 4.63336 133.346 4.40003 134.32 4.40003C135.306 4.40003 136.18 4.6267 136.94 5.08003C137.713 5.52003 138.32 6.1467 138.76 6.96003C139.2 7.76003 139.42 8.6867 139.42 9.74003C139.42 9.8067 139.413 9.88003 139.4 9.96003C139.4 10.0267 139.4 10.1 139.4 10.18H130.26V9.12003H138.64L138.08 9.54003C138.08 8.78003 137.913 8.1067 137.58 7.52003C137.26 6.92003 136.82 6.45336 136.26 6.12003C135.7 5.7867 135.053 5.62003 134.32 5.62003C133.6 5.62003 132.953 5.7867 132.38 6.12003C131.806 6.45336 131.36 6.92003 131.04 7.52003C130.72 8.12003 130.56 8.8067 130.56 9.58003V9.80003C130.56 10.6 130.733 11.3067 131.08 11.92C131.44 12.52 131.933 12.9934 132.56 13.34C133.2 13.6734 133.926 13.84 134.74 13.84C135.38 13.84 135.973 13.7267 136.52 13.5C137.08 13.2734 137.56 12.9267 137.96 12.46L138.76 13.38C138.293 13.94 137.706 14.3667 137 14.66C136.306 14.9534 135.54 15.1 134.7 15.1ZM142.563 15V4.50003H144.003L148.763 12.56H148.163L153.003 4.50003H154.323V15H153.023V6.12003L153.283 6.24003L148.763 13.72H148.123L143.563 6.16003L143.863 6.10003V15H142.563ZM161.239 10.8C161.239 10.24 161.326 9.76003 161.499 9.36003C161.686 8.96003 161.912 8.6067 162.179 8.30003C162.459 7.99336 162.752 7.7067 163.059 7.44003C163.379 7.17336 163.679 6.9067 163.959 6.64003C164.239 6.36003 164.466 6.06003 164.639 5.74003C164.812 5.4067 164.899 5.02003 164.899 4.58003C164.899 3.86003 164.619 3.27336 164.059 2.82003C163.499 2.3667 162.706 2.14003 161.679 2.14003C160.826 2.14003 160.086 2.28003 159.459 2.56003C158.832 2.8267 158.299 3.2267 157.859 3.76003L156.799 2.96003C157.332 2.29336 158.019 1.78003 158.859 1.42003C159.699 1.06003 160.672 0.88003 161.779 0.88003C162.712 0.88003 163.519 1.02003 164.199 1.30003C164.892 1.58003 165.426 1.98003 165.799 2.50003C166.186 3.02003 166.379 3.64003 166.379 4.36003C166.379 4.93336 166.286 5.4267 166.099 5.84003C165.926 6.24003 165.699 6.60003 165.419 6.92003C165.152 7.2267 164.859 7.52003 164.539 7.80003C164.232 8.0667 163.939 8.34003 163.659 8.62003C163.379 8.90003 163.152 9.21336 162.979 9.56003C162.806 9.9067 162.719 10.32 162.719 10.8H161.239ZM161.979 15.1C161.699 15.1 161.452 15 161.239 14.8C161.039 14.5867 160.939 14.34 160.939 14.06C160.939 13.7667 161.039 13.5267 161.239 13.34C161.452 13.14 161.699 13.04 161.979 13.04C162.286 13.04 162.539 13.14 162.739 13.34C162.939 13.5267 163.039 13.7667 163.039 14.06C163.039 14.34 162.939 14.5867 162.739 14.8C162.539 15 162.286 15.1 161.979 15.1Z" fill="white"/>
</svg>
